<mxfile host="app.diagrams.net" agent="Mozilla/5.0 (Macintosh; Intel Mac OS X 10_15_7) AppleWebKit/537.36 (KHTML, like Gecko) Chrome/139.0.0.0 Safari/537.36" version="28.2.0">
  <diagram name="Страница — 1" id="7v27e1lJDcSqUAPmMiRW">
    <mxGraphModel dx="1625" dy="904" grid="1" gridSize="10" guides="1" tooltips="1" connect="1" arrows="1" fold="1" page="1" pageScale="1" pageWidth="827" pageHeight="1169" math="0" shadow="0">
      <root>
        <mxCell id="0" />
        <mxCell id="1" parent="0" />
        <mxCell id="YOjdapkVj72_A1Xx6XG--14" style="edgeStyle=orthogonalEdgeStyle;rounded=0;orthogonalLoop=1;jettySize=auto;html=1;entryX=0.5;entryY=0;entryDx=0;entryDy=0;" edge="1" parent="1" source="YOjdapkVj72_A1Xx6XG--1" target="YOjdapkVj72_A1Xx6XG--3">
          <mxGeometry relative="1" as="geometry" />
        </mxCell>
        <mxCell id="YOjdapkVj72_A1Xx6XG--15" style="edgeStyle=orthogonalEdgeStyle;rounded=0;orthogonalLoop=1;jettySize=auto;html=1;entryX=0.5;entryY=0;entryDx=0;entryDy=0;" edge="1" parent="1" source="YOjdapkVj72_A1Xx6XG--1" target="YOjdapkVj72_A1Xx6XG--2">
          <mxGeometry relative="1" as="geometry" />
        </mxCell>
        <mxCell id="YOjdapkVj72_A1Xx6XG--16" style="edgeStyle=orthogonalEdgeStyle;rounded=0;orthogonalLoop=1;jettySize=auto;html=1;" edge="1" parent="1" source="YOjdapkVj72_A1Xx6XG--1" target="YOjdapkVj72_A1Xx6XG--5">
          <mxGeometry relative="1" as="geometry" />
        </mxCell>
        <mxCell id="YOjdapkVj72_A1Xx6XG--17" style="edgeStyle=orthogonalEdgeStyle;rounded=0;orthogonalLoop=1;jettySize=auto;html=1;entryX=0.5;entryY=0;entryDx=0;entryDy=0;" edge="1" parent="1" source="YOjdapkVj72_A1Xx6XG--1" target="YOjdapkVj72_A1Xx6XG--6">
          <mxGeometry relative="1" as="geometry" />
        </mxCell>
        <mxCell id="YOjdapkVj72_A1Xx6XG--52" style="edgeStyle=orthogonalEdgeStyle;rounded=0;orthogonalLoop=1;jettySize=auto;html=1;exitX=0;exitY=0.5;exitDx=0;exitDy=0;entryX=1;entryY=0.5;entryDx=0;entryDy=0;" edge="1" parent="1" source="YOjdapkVj72_A1Xx6XG--1" target="YOjdapkVj72_A1Xx6XG--4">
          <mxGeometry relative="1" as="geometry" />
        </mxCell>
        <mxCell id="YOjdapkVj72_A1Xx6XG--1" value="Главная страница" style="rounded=0;whiteSpace=wrap;html=1;" vertex="1" parent="1">
          <mxGeometry x="360" y="230" width="120" height="50" as="geometry" />
        </mxCell>
        <mxCell id="YOjdapkVj72_A1Xx6XG--28" style="edgeStyle=orthogonalEdgeStyle;rounded=0;orthogonalLoop=1;jettySize=auto;html=1;exitX=0.5;exitY=1;exitDx=0;exitDy=0;entryX=1;entryY=0.5;entryDx=0;entryDy=0;" edge="1" parent="1" source="YOjdapkVj72_A1Xx6XG--2" target="YOjdapkVj72_A1Xx6XG--27">
          <mxGeometry relative="1" as="geometry" />
        </mxCell>
        <mxCell id="YOjdapkVj72_A1Xx6XG--29" style="edgeStyle=orthogonalEdgeStyle;rounded=0;orthogonalLoop=1;jettySize=auto;html=1;exitX=0.5;exitY=1;exitDx=0;exitDy=0;entryX=1;entryY=0.5;entryDx=0;entryDy=0;" edge="1" parent="1" source="YOjdapkVj72_A1Xx6XG--2" target="YOjdapkVj72_A1Xx6XG--26">
          <mxGeometry relative="1" as="geometry" />
        </mxCell>
        <mxCell id="YOjdapkVj72_A1Xx6XG--30" style="edgeStyle=orthogonalEdgeStyle;rounded=0;orthogonalLoop=1;jettySize=auto;html=1;exitX=0.5;exitY=1;exitDx=0;exitDy=0;entryX=1;entryY=0.5;entryDx=0;entryDy=0;" edge="1" parent="1" source="YOjdapkVj72_A1Xx6XG--2" target="YOjdapkVj72_A1Xx6XG--25">
          <mxGeometry relative="1" as="geometry" />
        </mxCell>
        <mxCell id="YOjdapkVj72_A1Xx6XG--2" value="Цены" style="rounded=0;whiteSpace=wrap;html=1;" vertex="1" parent="1">
          <mxGeometry x="360" y="320" width="120" height="50" as="geometry" />
        </mxCell>
        <mxCell id="YOjdapkVj72_A1Xx6XG--22" style="edgeStyle=orthogonalEdgeStyle;rounded=0;orthogonalLoop=1;jettySize=auto;html=1;exitX=0.5;exitY=1;exitDx=0;exitDy=0;entryX=1;entryY=0.5;entryDx=0;entryDy=0;" edge="1" parent="1" source="YOjdapkVj72_A1Xx6XG--3" target="YOjdapkVj72_A1Xx6XG--8">
          <mxGeometry relative="1" as="geometry" />
        </mxCell>
        <mxCell id="YOjdapkVj72_A1Xx6XG--23" style="edgeStyle=orthogonalEdgeStyle;rounded=0;orthogonalLoop=1;jettySize=auto;html=1;exitX=0.5;exitY=1;exitDx=0;exitDy=0;entryX=1;entryY=0.5;entryDx=0;entryDy=0;" edge="1" parent="1" source="YOjdapkVj72_A1Xx6XG--3" target="YOjdapkVj72_A1Xx6XG--7">
          <mxGeometry relative="1" as="geometry" />
        </mxCell>
        <mxCell id="YOjdapkVj72_A1Xx6XG--24" style="edgeStyle=orthogonalEdgeStyle;rounded=0;orthogonalLoop=1;jettySize=auto;html=1;exitX=0.5;exitY=1;exitDx=0;exitDy=0;entryX=1;entryY=0.5;entryDx=0;entryDy=0;" edge="1" parent="1" source="YOjdapkVj72_A1Xx6XG--3" target="YOjdapkVj72_A1Xx6XG--9">
          <mxGeometry relative="1" as="geometry" />
        </mxCell>
        <mxCell id="YOjdapkVj72_A1Xx6XG--3" value="Услуги" style="rounded=0;whiteSpace=wrap;html=1;" vertex="1" parent="1">
          <mxGeometry x="200" y="320" width="120" height="50" as="geometry" />
        </mxCell>
        <mxCell id="YOjdapkVj72_A1Xx6XG--4" value="О нас" style="rounded=0;whiteSpace=wrap;html=1;" vertex="1" parent="1">
          <mxGeometry x="80" y="230" width="120" height="50" as="geometry" />
        </mxCell>
        <mxCell id="YOjdapkVj72_A1Xx6XG--39" style="edgeStyle=orthogonalEdgeStyle;rounded=0;orthogonalLoop=1;jettySize=auto;html=1;exitX=0.5;exitY=1;exitDx=0;exitDy=0;entryX=1;entryY=0.5;entryDx=0;entryDy=0;" edge="1" parent="1" source="YOjdapkVj72_A1Xx6XG--5" target="YOjdapkVj72_A1Xx6XG--31">
          <mxGeometry relative="1" as="geometry" />
        </mxCell>
        <mxCell id="YOjdapkVj72_A1Xx6XG--40" style="edgeStyle=orthogonalEdgeStyle;rounded=0;orthogonalLoop=1;jettySize=auto;html=1;exitX=0.5;exitY=1;exitDx=0;exitDy=0;entryX=1;entryY=0.5;entryDx=0;entryDy=0;" edge="1" parent="1" source="YOjdapkVj72_A1Xx6XG--5" target="YOjdapkVj72_A1Xx6XG--32">
          <mxGeometry relative="1" as="geometry" />
        </mxCell>
        <mxCell id="YOjdapkVj72_A1Xx6XG--41" style="edgeStyle=orthogonalEdgeStyle;rounded=0;orthogonalLoop=1;jettySize=auto;html=1;exitX=0.5;exitY=1;exitDx=0;exitDy=0;entryX=1;entryY=0.5;entryDx=0;entryDy=0;" edge="1" parent="1" source="YOjdapkVj72_A1Xx6XG--5" target="YOjdapkVj72_A1Xx6XG--33">
          <mxGeometry relative="1" as="geometry" />
        </mxCell>
        <mxCell id="YOjdapkVj72_A1Xx6XG--46" style="edgeStyle=orthogonalEdgeStyle;rounded=0;orthogonalLoop=1;jettySize=auto;html=1;exitX=0.5;exitY=1;exitDx=0;exitDy=0;entryX=0;entryY=0.5;entryDx=0;entryDy=0;" edge="1" parent="1" source="YOjdapkVj72_A1Xx6XG--5" target="YOjdapkVj72_A1Xx6XG--42">
          <mxGeometry relative="1" as="geometry" />
        </mxCell>
        <mxCell id="YOjdapkVj72_A1Xx6XG--47" style="edgeStyle=orthogonalEdgeStyle;rounded=0;orthogonalLoop=1;jettySize=auto;html=1;exitX=0.5;exitY=1;exitDx=0;exitDy=0;entryX=0;entryY=0.5;entryDx=0;entryDy=0;" edge="1" parent="1" source="YOjdapkVj72_A1Xx6XG--5" target="YOjdapkVj72_A1Xx6XG--43">
          <mxGeometry relative="1" as="geometry" />
        </mxCell>
        <mxCell id="YOjdapkVj72_A1Xx6XG--48" style="edgeStyle=orthogonalEdgeStyle;rounded=0;orthogonalLoop=1;jettySize=auto;html=1;exitX=0.5;exitY=1;exitDx=0;exitDy=0;entryX=0;entryY=0.5;entryDx=0;entryDy=0;" edge="1" parent="1" source="YOjdapkVj72_A1Xx6XG--5" target="YOjdapkVj72_A1Xx6XG--44">
          <mxGeometry relative="1" as="geometry" />
        </mxCell>
        <mxCell id="YOjdapkVj72_A1Xx6XG--5" value="Портфолио" style="rounded=0;whiteSpace=wrap;html=1;" vertex="1" parent="1">
          <mxGeometry x="520" y="320" width="120" height="50" as="geometry" />
        </mxCell>
        <mxCell id="YOjdapkVj72_A1Xx6XG--54" style="edgeStyle=orthogonalEdgeStyle;rounded=0;orthogonalLoop=1;jettySize=auto;html=1;exitX=0.5;exitY=1;exitDx=0;exitDy=0;entryX=0;entryY=0.5;entryDx=0;entryDy=0;" edge="1" parent="1" source="YOjdapkVj72_A1Xx6XG--6" target="YOjdapkVj72_A1Xx6XG--49">
          <mxGeometry relative="1" as="geometry" />
        </mxCell>
        <mxCell id="YOjdapkVj72_A1Xx6XG--55" style="edgeStyle=orthogonalEdgeStyle;rounded=0;orthogonalLoop=1;jettySize=auto;html=1;exitX=0.5;exitY=1;exitDx=0;exitDy=0;entryX=0;entryY=0.5;entryDx=0;entryDy=0;" edge="1" parent="1" source="YOjdapkVj72_A1Xx6XG--6" target="YOjdapkVj72_A1Xx6XG--50">
          <mxGeometry relative="1" as="geometry" />
        </mxCell>
        <mxCell id="YOjdapkVj72_A1Xx6XG--56" style="edgeStyle=orthogonalEdgeStyle;rounded=0;orthogonalLoop=1;jettySize=auto;html=1;exitX=0.5;exitY=1;exitDx=0;exitDy=0;entryX=0;entryY=0.5;entryDx=0;entryDy=0;" edge="1" parent="1" source="YOjdapkVj72_A1Xx6XG--6" target="YOjdapkVj72_A1Xx6XG--51">
          <mxGeometry relative="1" as="geometry" />
        </mxCell>
        <mxCell id="YOjdapkVj72_A1Xx6XG--57" style="edgeStyle=orthogonalEdgeStyle;rounded=0;orthogonalLoop=1;jettySize=auto;html=1;exitX=0.5;exitY=1;exitDx=0;exitDy=0;entryX=0;entryY=0.5;entryDx=0;entryDy=0;" edge="1" parent="1" source="YOjdapkVj72_A1Xx6XG--6" target="YOjdapkVj72_A1Xx6XG--53">
          <mxGeometry relative="1" as="geometry" />
        </mxCell>
        <mxCell id="YOjdapkVj72_A1Xx6XG--6" value="Контакты" style="rounded=0;whiteSpace=wrap;html=1;" vertex="1" parent="1">
          <mxGeometry x="700" y="320" width="120" height="50" as="geometry" />
        </mxCell>
        <mxCell id="YOjdapkVj72_A1Xx6XG--7" value="Сайты и лендинги" style="rounded=0;whiteSpace=wrap;html=1;" vertex="1" parent="1">
          <mxGeometry x="120" y="440" width="120" height="50" as="geometry" />
        </mxCell>
        <mxCell id="YOjdapkVj72_A1Xx6XG--8" value="Веб-приложения" style="rounded=0;whiteSpace=wrap;html=1;" vertex="1" parent="1">
          <mxGeometry x="120" y="495" width="120" height="50" as="geometry" />
        </mxCell>
        <mxCell id="YOjdapkVj72_A1Xx6XG--9" value="Поддержка и развитие" style="rounded=0;whiteSpace=wrap;html=1;" vertex="1" parent="1">
          <mxGeometry x="120" y="550" width="120" height="50" as="geometry" />
        </mxCell>
        <mxCell id="YOjdapkVj72_A1Xx6XG--25" value="Custom" style="rounded=0;whiteSpace=wrap;html=1;" vertex="1" parent="1">
          <mxGeometry x="280" y="550" width="120" height="50" as="geometry" />
        </mxCell>
        <mxCell id="YOjdapkVj72_A1Xx6XG--26" value="Business" style="rounded=0;whiteSpace=wrap;html=1;" vertex="1" parent="1">
          <mxGeometry x="280" y="495" width="120" height="50" as="geometry" />
        </mxCell>
        <mxCell id="YOjdapkVj72_A1Xx6XG--27" value="Start" style="rounded=0;whiteSpace=wrap;html=1;" vertex="1" parent="1">
          <mxGeometry x="280" y="440" width="120" height="50" as="geometry" />
        </mxCell>
        <mxCell id="YOjdapkVj72_A1Xx6XG--31" value="E-commerce" style="rounded=0;whiteSpace=wrap;html=1;" vertex="1" parent="1">
          <mxGeometry x="430" y="440" width="120" height="50" as="geometry" />
        </mxCell>
        <mxCell id="YOjdapkVj72_A1Xx6XG--32" value="SaaS" style="rounded=0;whiteSpace=wrap;html=1;" vertex="1" parent="1">
          <mxGeometry x="430" y="495" width="120" height="50" as="geometry" />
        </mxCell>
        <mxCell id="YOjdapkVj72_A1Xx6XG--33" value="Финтех" style="rounded=0;whiteSpace=wrap;html=1;" vertex="1" parent="1">
          <mxGeometry x="430" y="550" width="120" height="50" as="geometry" />
        </mxCell>
        <mxCell id="YOjdapkVj72_A1Xx6XG--42" value="Медиа" style="rounded=0;whiteSpace=wrap;html=1;" vertex="1" parent="1">
          <mxGeometry x="610" y="440" width="120" height="50" as="geometry" />
        </mxCell>
        <mxCell id="YOjdapkVj72_A1Xx6XG--43" value="EduTech" style="rounded=0;whiteSpace=wrap;html=1;" vertex="1" parent="1">
          <mxGeometry x="610" y="495" width="120" height="50" as="geometry" />
        </mxCell>
        <mxCell id="YOjdapkVj72_A1Xx6XG--44" value="IoT" style="rounded=0;whiteSpace=wrap;html=1;" vertex="1" parent="1">
          <mxGeometry x="610" y="550" width="120" height="50" as="geometry" />
        </mxCell>
        <mxCell id="YOjdapkVj72_A1Xx6XG--49" value="Форма обратной связи" style="rounded=0;whiteSpace=wrap;html=1;" vertex="1" parent="1">
          <mxGeometry x="820" y="440" width="120" height="50" as="geometry" />
        </mxCell>
        <mxCell id="YOjdapkVj72_A1Xx6XG--50" value="Email" style="rounded=0;whiteSpace=wrap;html=1;" vertex="1" parent="1">
          <mxGeometry x="820" y="495" width="120" height="50" as="geometry" />
        </mxCell>
        <mxCell id="YOjdapkVj72_A1Xx6XG--51" value="Телефон" style="rounded=0;whiteSpace=wrap;html=1;" vertex="1" parent="1">
          <mxGeometry x="820" y="550" width="120" height="50" as="geometry" />
        </mxCell>
        <mxCell id="YOjdapkVj72_A1Xx6XG--53" value="Локация" style="rounded=0;whiteSpace=wrap;html=1;" vertex="1" parent="1">
          <mxGeometry x="820" y="610" width="120" height="50" as="geometry" />
        </mxCell>
      </root>
    </mxGraphModel>
  </diagram>
</mxfile>
